<svg
      xmlns="http://www.w3.org/2000/svg"
      width="40"
      height="40"
      version="1.1"
      viewBox="0 0 161.364 161.802"
    >
      <g
        fill="#00d9ff"
        fillOpacity="1"
        fillRule="nonzero"
        stroke="none"
        strokeDasharray="none"
        strokeDashoffset="0"
        strokeLinecap="round"
        strokeLinejoin="round"
        strokeMiterlimit="4"
        strokeOpacity="1"
        strokeWidth="1.8"
        color="#000"
        transform="translate(-401.041 -365.232)"
        visibility="visible"
      >
        <path
          d="M470.018 453.045c-14.003-6.109-15.216-6.785-13.767-7.68 2.343-1.448 1.014-2.397-2.665-1.903-2.874.385-5.592-.29-11.112-2.757-4.019-1.797-7.307-3.708-7.307-4.246 0-2.162 45.373-70.612 47.212-71.225 1.389-.463 48.784 70.975 47.634 71.797-.218.155-3.673 1.762-7.677 3.57-7.756 3.501-9.769 3.914-12.832 2.627-1.605-.673-1.84-.462-1.39 1.255.598 2.289-.076 2.7-15.671 9.533-4.89 2.142-9.435 3.891-10.102 3.886-.666-.005-6.212-2.19-12.323-4.857zm-5.099-11.458c2.532-1.154 3.495-2.869 1.61-2.869-1.685 0-6.108 2.312-6.108 3.193 0 1.167 1.456 1.062 4.498-.324zm39.949.69c0-.265-1.117-1.213-2.481-2.107-3.035-1.989-5.867-.843-3.035 1.228 1.776 1.299 5.516 1.895 5.516.88zm-30.857-4.731c2.532-1.154 3.494-2.868 1.61-2.868-1.685 0-6.108 2.311-6.108 3.192 0 1.167 1.455 1.062 4.498-.324zm20.846-.234c-1.662-2.002-5.141-2.753-5.141-1.109 0 1.474 1.523 2.314 4.416 2.436 1.505.063 1.653-.209.725-1.327zm-9.826-3.42c.267-.432-.308-1.838-1.278-3.124l-1.764-2.339-1.64 2.504c-.902 1.377-1.36 2.782-1.019 3.124.89.89 5.125.767 5.701-.165zm-1.376-11.336c0-3.172-1.666-4.12-2.665-1.515-.723 1.882.228 4.545 1.623 4.545.573 0 1.042-1.363 1.042-3.03zm0-10.102c0-3.172-1.666-4.119-2.665-1.515-.723 1.883.228 4.546 1.623 4.546.573 0 1.042-1.364 1.042-3.03zm0-10.606c0-1.945-.446-3.536-.991-3.536-1.253 0-2.45 4.58-1.57 6.004 1.333 2.156 2.56.973 2.56-2.468zm0-10.666c0-2.96-1.307-3.932-2.561-1.904-.943 1.526.407 6.206 1.58 5.48.54-.333.98-1.943.98-3.576zm0-10.102c0-2.96-1.307-3.932-2.561-1.903-.943 1.525.407 6.205 1.58 5.48.54-.333.98-1.943.98-3.577zm0-10.042c0-3.534-1.628-4.848-2.521-2.035-.794 2.5.3 6.319 1.583 5.526.516-.319.938-1.89.938-3.49z"
          display="inline"
          enableBackground="accumulate"
          opacity="1"
          overflow="visible"
        ></path>
        <path
          d="M409.803 434.924c10.09-11.01 61.237-60.878 60.634-59.118-.23.673-9.056 14.606-19.612 30.962l-19.193 29.738-13.637 3.259c-7.5 1.792-14.32 3.517-15.152 3.833-.834.316 2.299-3.587 6.96-8.674z"
          display="inline"
          enableBackground="accumulate"
          opacity="1"
          overflow="visible"
        ></path>
        <path
          d="M547.61 440.044l-14.333-3.506-3.95-6.234c-2.174-3.428-11.098-17.3-19.832-30.827-8.734-13.526-15.715-24.76-15.512-24.962.202-.202 15.783 15.052 34.623 33.899 18.841 18.846 34.049 34.462 33.796 34.702-.253.239-6.91-1.143-14.793-3.072z"
          display="inline"
          enableBackground="accumulate"
          opacity="1"
          overflow="visible"
        ></path>
        <path
          d="M484.33 525.483c-.841-3.14-.85-27.442-.02-48.51l.655-16.616 24-10.723 23.999-10.724 14.994 3.762c12.681 3.181 14.487 3.864 11.71 4.424-4.767.963-4.284 3.139.506 2.278 3.512-.631 1.148 1.964-32.446 35.622-25.936 25.984-36.734 36.172-37.993 35.842-1.282-.335-2.166.561-3.259 3.301-1.418 3.556-1.535 3.63-2.147 1.344zm10.4-9.927c1.748-3.264 1.245-4.6-.974-2.592-2.113 1.913-2.719 4.546-1.045 4.546.536 0 1.445-.88 2.02-1.954zm5.535-8.372c1.928-2.753 1.99-3.816.22-3.816-1.114 0-3.698 3.916-3.698 5.603 0 1.267 2.092.192 3.478-1.787zm6.06-9.091c1.867-2.665 1.994-3.816.422-3.816-1.38 0-3.822 3.029-3.867 4.798-.05 1.985 1.721 1.48 3.446-.982zm5.587-9.143c.819-1.452 1.128-3 .689-3.44-.913-.912-4.646 3.53-4.68 5.568-.035 2.076 2.332.815 3.991-2.128zm5.696-8.342c.922-1.406 1.39-2.843 1.04-3.193-.87-.87-4.689 2.707-4.689 4.391 0 2.176 1.833 1.574 3.65-1.198zm5.16-8.634c.815-1.616.879-2.568.189-2.804-1.222-.42-3.868 2.782-3.915 4.735-.049 2.058 2.34.82 3.726-1.931zm6.061-9.092c.815-1.616.879-2.567.189-2.803-1.222-.42-3.868 2.781-3.915 4.735-.049 2.057 2.34.819 3.726-1.932zm4.323-7.52c0-1.638-3.065-3.512-5.742-3.51-1.495 0-1.274.537 1.196 2.904 3.087 2.957 4.546 3.151 4.546.606zm8.052-1.452c.817-.517 1.18-1.246.805-1.621-.95-.95-5.826.39-5.826 1.6 0 1.25 3.058 1.262 5.021.021zm11.579-3.125c1.573-1.538-.142-2.232-3.09-1.25-3.951 1.318-4.618 3.844-.763 2.891 1.6-.395 3.334-1.134 3.853-1.64zm-28.722.081c0-.878-5.11-4.066-6.516-4.066-1.548 0-.259 2.864 1.718 3.817 2.907 1.403 4.798 1.5 4.798.25z"
          display="inline"
          enableBackground="accumulate"
          opacity="1"
          overflow="visible"
        ></path>
        <path
          d="M477.344 522.452c-1.013-1.765-2.228-2.758-2.88-2.355-1.27.784-74.438-71.828-73.412-72.854.349-.349 7.466-2.354 15.816-4.455l15.181-3.82 24.035 10.767 24.035 10.767.267 30.397c.147 16.718-.083 31.344-.511 32.501-.737 1.994-.871 1.943-2.53-.948zm-4.677-7.163c-.946-2.556-3.154-3.677-3.154-1.6 0 1.507 1.937 3.821 3.2 3.821.426 0 .405-1-.047-2.22zm-5.175-7.182c0-1.96-2.747-5.36-3.623-4.483-.863.863 1.507 5.805 2.784 5.805.462 0 .84-.595.84-1.322zm-5.76-9.757c-.285-1.093-1.152-2.512-1.925-3.154-1.118-.928-1.406-.77-1.406.775 0 1.921 1.757 4.367 3.138 4.367.392 0 .48-.895.194-1.988zm-6.402-10.688c-.67-.807-1.616-1.467-2.104-1.467-1.46 0-1.005 2.235.882 4.326 1.572 1.741 1.805 1.773 2.103.283.185-.921-.211-2.335-.88-3.142zm-5.444-8.065c-1.602-2.445-3.607-3.345-3.607-1.619 0 .48.999 2.144 2.22 3.696 2.631 3.345 3.797 1.6 1.387-2.077zm-5.597-8.498c-1.207-2.255-3.06-2.796-3.06-.893 0 1.678 3.412 5.246 3.827 4.001.19-.567-.156-1.966-.767-3.108zm-6.475-9.964c-2.422-2.422-3.163-.621-1.05 2.553 1.625 2.442 1.92 2.563 2.254.922.211-1.038-.33-2.602-1.204-3.475zm-1.605-5.942c3.029-2.86 3.124-4.69.189-3.65-2.922 1.035-5.164 3.451-4.59 4.948.741 1.932 1.086 1.83 4.4-1.298zm-7.103-1.303c0-1.336-4.622-2.424-6.189-1.456-.905.56-.712.987.7 1.54 2.821 1.104 5.49 1.064 5.49-.084zm-10.335-2.237c-.52-1.56-5.64-2.942-6.392-1.726-.316.512.477 1.352 1.763 1.868 3.3 1.323 5.099 1.268 4.629-.142zm28.386-2.169c.619-.745.856-1.624.528-1.952-.77-.77-5.447 1.344-5.447 2.46 0 1.358 3.686.978 4.919-.508zm-38.254-.555c0-1-5.007-2.51-5.776-1.74-.268.267-.187.971.179 1.564.803 1.3 5.597 1.45 5.597.176z"
          display="inline"
          enableBackground="accumulate"
          opacity="1"
          overflow="visible"
        ></path>
      </g>
    </svg>