<svg
      xmlns="http://www.w3.org/2000/svg"
      width="40"
      height="40"
      version="1.1"
      viewBox="0 0 170.684 156.574"
    >
      <g
        fill="#00d9ff"
        fillOpacity="1"
        fillRule="nonzero"
        stroke="none"
        strokeDasharray="none"
        strokeDashoffset="0"
        strokeLinecap="round"
        strokeLinejoin="round"
        strokeMiterlimit="4"
        strokeOpacity="1"
        strokeWidth="1.8"
        color="#000"
        transform="translate(258.067 -568.743)"
        visibility="visible"
      >
        <path
          d="M-228.773 665.412c-4.167-4.023-10.586-10.534-14.265-14.468-3.679-3.935-7.543-7.793-8.586-8.574-1.044-.782-2.694-2.363-3.668-3.514-1.725-2.04-1.337-2.846 15.042-31.305 9.247-16.066 16.863-29.282 16.923-29.368.06-.086 11.02 2.748 24.354 6.3 13.334 3.55 24.357 6.462 24.496 6.47.139.007.252 12.108.252 26.89 0 23.975-.17 26.812-1.581 26.27-1.205-.462-1.433-.138-.957 1.362.48 1.512-.263 2.526-3.217 4.383-7.517 4.728-39.649 22.93-40.426 22.9-.435-.016-4.2-3.322-8.367-7.346zm-12.707-25.14c.852-1.216 1.335-2.426 1.073-2.687-.603-.604-4.528 2.903-4.528 4.045 0 1.605 1.904.857 3.455-1.358zm58.848-.36c-1.568-1.379-3.346-2.201-3.952-1.827-1.385.856 2.806 4.412 5.148 4.367 1.226-.023.916-.682-1.196-2.54zm-9.227-5.167c-2.09-1.838-3.117-2.233-3.422-1.319-.506 1.518 2.54 4.022 4.834 3.975 1.08-.022.635-.857-1.412-2.656zm-42.464-1.358c1.008-1.115 1.536-2.324 1.173-2.688-.737-.737-4.714 2.52-4.714 3.86 0 1.475 1.635.933 3.54-1.172zm35.855-1.98c0-1.106-3.285-3.065-5.141-3.065-.773 0-.55.755.595 2.02 1.912 2.113 4.546 2.72 4.546 1.046zm-28.784-5.092c1.009-1.114 1.536-2.324 1.173-2.687-.737-.737-4.714 2.52-4.714 3.86 0 1.475 1.635.933 3.54-1.173zm19.692.209c0-1.512-2.418-3.233-4.495-3.2-1.985.033-1.972.117.314 2.021 2.493 2.077 4.181 2.553 4.181 1.179zm-9.091-5.65c0-.774-.682-1.669-1.515-1.989-.834-.32-1.516-1.277-1.516-2.128 0-2.026-1.633-1.992-2.417.05-1.02 2.661-.715 3.478 1.66 4.432 3.207 1.29 3.788 1.234 3.788-.365zm-1.026-14.057c-.012-2.453-.25-2.862-.994-1.709-1.295 2.004-1.295 6.356 0 5.556.555-.343 1.003-2.075.994-3.847zm2.86-9.11c.177-1.485-.164-2.7-.757-2.7-.592 0-1.083.34-1.09.758-.009.416-.305 1.84-.66 3.165-.48 1.796-.283 2.29.772 1.943.779-.257 1.56-1.681 1.736-3.166zm2.814-9.313c.355-1.415.339-2.88-.036-3.254-.878-.878-2.556 1.767-2.576 4.059-.024 2.693 1.88 2.106 2.612-.805z"
          display="inline"
          enableBackground="accumulate"
          opacity="1"
          overflow="visible"
        ></path>
        <path
          d="M-182.306 586.3c-21.005-5.482-26.264-7.386-26.264-9.508 0-2.403-1.575-2.603-2.831-.36-.685 1.224-1.7 1.455-4.09.93-1.75-.384-3.18-1.033-3.18-1.442 0-1.239 7.997-5.328 9.094-4.65.563.348 1.733-.079 2.602-.947 1.368-1.368 5.973-1.58 34.338-1.58 31.41 0 32.84.083 34.778 2.02 2.416 2.417 2.783 2.476 3.209.524.254-1.164 1.399-.797 5.154 1.654 2.655 1.733 4.606 3.372 4.335 3.643-.271.272-2.444.605-4.828.741-2.384.137-6.004.98-8.044 1.875-2.892 1.268-20.394 6.143-33.161 9.236-.834.202-5.834-.76-11.112-2.137z"
          display="inline"
          enableBackground="accumulate"
          opacity="1"
          overflow="visible"
        ></path>
        <path
          d="M-129.273 670.42c-34.273-19.925-38.986-23.014-38.318-25.119.52-1.638.319-1.977-.896-1.511-1.257.482-1.708-.533-2.287-5.15-.737-5.883.16-46.57 1.047-47.457.27-.27 8.1-2.44 17.399-4.823 12.167-3.117 17.416-4.06 18.719-3.363 1.366.731 1.81.598 1.81-.542 0-.948 1.95-2.091 5.223-3.063 2.873-.853 5.31-1.439 5.417-1.302.107.137 7.376 12.75 16.153 28.029 8.778 15.278 16.45 28.574 17.05 29.546.929 1.507-1.51 4.37-16.567 19.445-9.712 9.723-18.344 17.674-19.183 17.67-.84-.006-3.345-1.068-5.567-2.36zm30.631-28.585c-.39-1.984-3.47-4.12-4.48-3.11-.8.8 2.43 4.77 3.88 4.77.51 0 .78-.748.6-1.66zm-60.878-.784c1.078-.788 1.619-1.773 1.202-2.19-.863-.863-5.805 1.506-5.805 2.784 0 1.304 2.438.99 4.603-.594zm9.034-5.638c1.543-1.706 1.585-2.02.268-2.02-.858 0-2.633.894-3.944 1.986-2.322 1.935-2.33 1.988-.269 2.02 1.164.02 2.94-.875 3.945-1.986zm44.773-.65c-.39-1.983-3.47-4.12-4.48-3.109-.8.8 2.43 4.77 3.88 4.77.51 0 .78-.748.6-1.66zm-36.046-4.367c2.322-1.934 2.329-1.988.268-2.02-1.164-.019-2.939.875-3.944 1.986-1.544 1.706-1.586 2.02-.269 2.02.858 0 2.633-.893 3.945-1.986zm28.975-2.703c-.39-1.984-3.47-4.12-4.48-3.11-.8.8 2.43 4.77 3.88 4.77.51 0 .78-.748.6-1.66zm-20.968-1.407c1.074-.575 1.954-1.484 1.954-2.02 0-1.673-2.634-1.068-4.546 1.045-2.008 2.22-.672 2.722 2.592.975zm15.08-5.092c.002-.32-1.077-1.598-2.4-2.84l-2.405-2.26-2.645 2.452c-1.455 1.348-2.646 2.673-2.646 2.943s2.27.445 5.045.39c2.774-.057 5.047-.365 5.05-.685zm-6.055-11.48c0-1.356-.455-2.747-1.01-3.09-.59-.365-1.01.663-1.01 2.465 0 1.7.454 3.09 1.01 3.09.555 0 1.01-1.11 1.01-2.465zm-2.446-11.215c-.688-2.74-2.605-3.402-2.605-.9 0 .87.53 2.573 1.18 3.785 1.425 2.663 2.348.794 1.425-2.885zm-2.998-11.142c-.615-1.6-2.637-1.981-2.637-.497 0 .52.535 2.224 1.19 3.788 1.162 2.776 1.2 2.787 1.595.497.223-1.29.156-2.995-.148-3.788z"
          display="inline"
          enableBackground="accumulate"
          opacity="1"
          overflow="visible"
        ></path>
        <path
          d="M-207.996 720.013c-5.885-20.76-11.539-43.733-10.916-44.352.41-.407 10.746-6.432 22.969-13.39 19.332-11.004 22.265-12.392 22.546-10.663.43 2.641 2.203 2.558 2.203-.104 0-1.955.45-1.848 6.91 1.64 3.8 2.054 14.141 8.113 22.98 13.467 14.452 8.753 16.04 9.987 15.76 12.249-.443 3.582-8.138 29.262-9.733 32.484-.734 1.482-1.005 3.073-.603 3.535.403.463.095 3-.682 5.64l-1.415 4.798h-68.516l-1.503-5.304zm8.271-8.586c.58-1.766-2.995-1.586-5.369.27-1.85 1.447-1.766 1.518 1.497 1.263 1.902-.149 3.644-.839 3.872-1.533zm59.6.505c-.229-.694-1.971-1.384-3.873-1.533-3.263-.255-3.347-.184-1.497 1.263 2.374 1.856 5.949 2.036 5.37.27zm-49.757-2.778c.363-.588-.643-1.01-2.406-1.01-1.667 0-3.312.455-3.655 1.01-.363.588.643 1.01 2.406 1.01 1.667 0 3.312-.454 3.655-1.01zm40.454.078c-.746-1.208-6.56-2.49-7.415-1.634-.36.36.013 1.079.83 1.596 1.93 1.22 7.335 1.252 6.585.038zm-31.303-2.571c1.488-1.126 1.595-1.488.445-1.502-2.608-.031-6.06 1.16-6.06 2.093 0 1.405 3.456 1.042 5.615-.591zm21.088.579c.64-1.034-1.705-2.126-4.563-2.126-2.693 0-2.435 1.783.335 2.317 1.25.24 2.587.5 2.971.575.384.076.95-.269 1.257-.766zm-9.531-3.077c0-.523-.455-1.231-1.01-1.575-.556-.343-1.01-1.506-1.01-2.585 0-2.951-1.674-2.359-3.462 1.225-.874 1.752-1.589 3.343-1.589 3.536 0 .192 1.591.35 3.536.35 1.944 0 3.535-.428 3.535-.951zm-2.9-16.497c-1.681-1.68-2.631 4.032-1 6.013 1.226 1.491 1.41 1.312 1.7-1.657.18-1.83-.136-3.79-.7-4.356zm.88-6.375c0-2.447-.41-3.484-1.263-3.2-1.767.589-2.17 3.601-.717 5.353 1.758 2.118 1.98 1.877 1.98-2.153zm0-11.677c0-1.994-.438-2.909-1.263-2.634-1.487.495-2.181 3.274-1.355 5.427.918 2.392 2.618.578 2.618-2.793zm0-9.452c0-3.441-1.228-4.625-2.561-2.468-.88 1.424.317 6.003 1.57 6.003.545 0 .99-1.59.99-3.535z"
          display="inline"
          enableBackground="accumulate"
          opacity="1"
          overflow="visible"
        ></path>
        <path
          d="M-133.767 720.084c.507-1.766 1.489-3.562 2.182-3.99.693-.429 1.146-2.279 1.006-4.112-.14-1.833 1.773-10.833 4.25-20l4.503-16.668 13.23-12.897c11.813-11.516 13.452-12.778 15.303-11.788 2.65 1.418 3.687.4 2.13-2.092-1.014-1.624-.81-2.389 1.27-4.752l2.478-2.816.031 5.749c.018 3.161-.38 6.003-.883 6.314-.503.311-.692 1.418-.42 2.459.606 2.319-.932 5.366-15.615 30.935-15.03 26.174-16.844 28.789-19.969 28.789-1.362 0-2.477.455-2.477 1.01 0 .556.482 1.01 1.07 1.01 1.927 0-.119 2.01-4.128 4.055-5.056 2.58-5.047 2.582-3.96-1.206z"
          display="inline"
          enableBackground="accumulate"
          opacity="1"
          overflow="visible"
        ></path>
        <path
          d="M-214.697 721.455c-7.585-4.959-14.55-15.193-34.727-51.024-5.792-10.287-7.57-14.271-6.74-15.101 1.652-1.653 1.386-3.79-.388-3.11-1.24.476-1.515-.482-1.515-5.258v-5.84l2.525 2.372c1.389 1.305 2.525 3.479 2.525 4.83 0 1.837.408 2.301 1.616 1.838 1.141-.439 5.66 3.362 15.405 12.958l13.79 13.578 3.888 14.745c4.526 17.165 5.466 22.762 3.82 22.762-.629 0-1.143.454-1.143 1.01s.91 1.01 2.02 1.01c1.112 0 2.02.117 2.02.26 0 .142.423 1.733.94 3.535 1.082 3.771.082 4.127-4.036 1.435z"
          display="inline"
          enableBackground="accumulate"
          opacity="1"
          overflow="visible"
        ></path>
      </g>
    </svg>