<svg
      xmlns="http://www.w3.org/2000/svg"
      width="40"
      height="40"
      version="1.1"
      viewBox="0 0 148.492 164.691"
    >
      <g
        fill="#00d9ff"
        fillOpacity="1"
        fillRule="nonzero"
        stroke="none"
        strokeDasharray="none"
        strokeDashoffset="0"
        strokeLinecap="round"
        strokeLinejoin="round"
        strokeMiterlimit="4"
        strokeOpacity="1"
        strokeWidth="1.8"
        color="#000"
        transform="translate(518.841 -825.92)"
        visibility="visible"
      >
        <path
          d="M-407.673 882.271c-4.192-6.596-9.143-14.927-9.143-15.386 0-.288 1.136-.523 2.525-.523 1.39 0 2.526-.455 2.526-1.01 0-.556-1.158-1.01-2.574-1.01-1.422 0-3.57-1.083-4.798-2.419-2.996-3.256-20.225-32.95-19.525-33.65.588-.589 8.661 3.837 42.085 23.07 16.552 9.524 20.744 12.362 20.744 14.045 0 1.562-2.107 3.369-8.117 6.959-9.064 5.414-21.22 12.197-21.86 12.197-.23 0-1.069-1.022-1.863-2.273zm7.02-16.812c0-1.53-3.073-2.176-5.124-1.079-2.805 1.501-2.42 1.982 1.588 1.982 1.944 0 3.535-.406 3.535-.903zm10.101 0c0-1.333-2.536-2.068-4.953-1.436-3.352.876-2.465 2.339 1.417 2.339 1.945 0 3.536-.406 3.536-.903zm10.102-.023c0-1.237-2.11-1.884-4.294-1.318-2.866.744-2.021 2.244 1.263 2.244 1.667 0 3.03-.417 3.03-.926z"
          display="inline"
          enableBackground="accumulate"
          opacity="1"
          overflow="visible"
        ></path>
        <path
          d="M-479.445 885.032c0-1.166 9.458-16.236 10.926-17.408.87-.694 2.631-1.262 3.914-1.262 1.283 0 2.332-.455 2.332-1.01 0-.556-.655-1.01-1.455-1.01-.801 0-1.717-.423-2.036-.939-.514-.831 13.334-25.542 19.156-34.183l2.224-3.3 10.137 16.937c13.196 22.048 24.502 41.507 24.502 42.17 0 .29-10 .527-22.223.527-22.188 0-22.224-.003-22.224-2.21v-2.211l-2.06 2.21c-1.865 2.003-3.056 2.211-12.626 2.211-5.812 0-10.567-.235-10.567-.522zm43.86-6.308c-1.098-1.676-1.948-2.234-2.21-1.45-.233.7.38 2.5 1.361 4 1.099 1.675 1.95 2.234 2.21 1.45.234-.701-.378-2.501-1.36-4zm-14.602-1.184c1.773-3.313 1.113-4.773-1.008-2.228-1.092 1.312-1.986 2.79-1.986 3.283 0 1.62 1.926.94 2.994-1.055zm11.148-4.388c0-2.01-3.059-5.882-4.126-5.223-.552.342-.217 1.844.792 3.553 1.834 3.105 3.334 3.857 3.334 1.67zm-5.613-4.995c1.77-2.527 2.097-7.413.56-8.363-1.18-.73-3.26 3.818-3.58 7.83-.269 3.36.896 3.565 3.02.533zm-7.52-2.688c0-1.165-3.835-2.153-5.653-1.456-2.64 1.014-1.436 2.349 2.118 2.349 1.945 0 3.536-.402 3.536-.893zm20.204-.01c0-1.277-2.748-2.173-4.546-1.483-2.567.985-1.678 2.385 1.515 2.385 1.667 0 3.03-.406 3.03-.902zm10.101 0c0-1.277-2.747-2.173-4.545-1.483-2.568.985-1.678 2.385 1.515 2.385 1.667 0 3.03-.406 3.03-.902zm-21.213-13.384c0-1.994-.438-2.909-1.263-2.634-1.487.495-2.181 3.274-1.355 5.427.918 2.391 2.618.578 2.618-2.793zm0-9.957c0-3.172-1.666-4.12-2.665-1.516-.723 1.883.228 4.546 1.623 4.546.573 0 1.042-1.364 1.042-3.03zm0-10.162c0-2.96-1.307-3.931-2.56-1.903-.944 1.525.406 6.206 1.58 5.48.539-.333.98-1.943.98-3.577z"
          display="inline"
          enableBackground="accumulate"
          opacity="1"
          overflow="visible"
        ></path>
        <path
          d="M-493.45 878.916c-5.703-3.027-12.878-7.11-15.947-9.072-6.694-4.283-6.635-4.417 5.085-11.485 14.486-8.737 54.56-31.33 54.924-30.967.449.449-27.96 48.796-32.508 55.322-1.077 1.546-2.158 1.19-11.555-3.798zm-11.25-13.48c0-1.184-2.149-1.945-3.787-1.343-2.187.804-1.372 2.269 1.262 2.269 1.39 0 2.526-.417 2.526-.926zm11.112.023c0-1.333-2.536-2.068-4.953-1.436-3.351.876-2.465 2.339 1.418 2.339 1.944 0 3.535-.406 3.535-.903zm10.102 0c0-1.333-2.536-2.068-4.953-1.436-3.352.876-2.465 2.339 1.417 2.339 1.945 0 3.536-.406 3.536-.903zm10.101-.023c0-1.237-2.11-1.884-4.293-1.318-2.866.744-2.021 2.244 1.263 2.244 1.667 0 3.03-.417 3.03-.926z"
          display="inline"
          enableBackground="accumulate"
          opacity="1"
          overflow="visible"
        ></path>
        <path
          d="M-518.841 907.81c0-31.882.185-36.263 1.515-35.753.94.361 1.515-.006 1.515-.968 0-1.08 4.655 1.07 15.405 7.118 8.473 4.766 15.552 8.782 15.732 8.923.472.37-2.6 6.16-6.588 12.42-3.343 5.247-3.506 5.357-5.412 3.632-1.843-1.668-1.964-1.67-1.964-.04 0 .956.472 2.621 1.05 3.7.874 1.634-.692 4.92-9.344 19.614-5.717 9.709-10.735 17.66-11.152 17.67-.416.01-.757-16.333-.757-36.316zm17.2-13.111c-1.165-2.177-3.058-2.814-3.058-1.028 0 .575.793 2.257 1.763 3.738 1.379 2.103 1.834 2.328 2.085 1.027.176-.915-.18-2.597-.79-3.737zm-4.071-7.13c-.56-1.046-1.5-2.2-2.09-2.565-1.96-1.211-2.244.453-.525 3.077 1.936 2.955 4.23 2.507 2.615-.511zm-5.048-7.964c0-.494-.894-1.97-1.987-3.283-1.904-2.285-1.988-2.298-2.02-.313-.034 2.077 1.687 4.495 3.199 4.495.444 0 .808-.405.808-.899z"
          display="inline"
          enableBackground="accumulate"
          opacity="1"
          overflow="visible"
        ></path>
        <path
          d="M-509.983 949.268l-6.799-.579 12.892-22.223c19.08-32.89 20.845-35.82 21.59-35.841.376-.011 3.012 4.05 5.859 9.026 5.144 8.989 5.166 9.065 3.537 12.215-2.026 3.917-1 5.339 1.481 2.05l1.823-2.417 1.5 2.433c.823 1.338 3.13 5.16 5.123 8.493l3.625 6.061-2.975.316c-1.637.175-2.976.743-2.976 1.263 0 .878 2.062 1.353 4.619 1.063 1.535-.174 4.485 3.367 9.369 11.248l4.226 6.818h-11.004c-8.549 0-11.284-.338-12.261-1.515-1.565-1.886-3.03-1.957-3.03-.146 0 2.392-18.556 3.272-36.599 1.735zm.486-2.49c.972-.738 1.767-1.633 1.767-1.988 0-1.326-2.886-.58-5.191 1.34-2.24 1.865-2.262 1.987-.365 1.988 1.112.001 2.816-.602 3.789-1.34zm9.09-5.051c.973-.738 1.769-1.633 1.769-1.988 0-1.325-2.886-.58-5.192 1.34-2.239 1.866-2.261 1.987-.364 1.988 1.111.001 2.816-.602 3.788-1.34zm25.98.143c-.047-1.84-2.86-5.273-3.663-4.47-.811.812 1.64 5.733 2.856 5.733.462 0 .825-.568.807-1.263zm-18.084-4.833c1.996-1.069 2.675-2.995 1.056-2.995-.494 0-1.972.894-3.283 1.986-2.546 2.12-1.086 2.782 2.227 1.009zm13.066-6.026c0-4.026-1.525-4.584-5.007-1.834-3.69 2.914-3.864 4.241-.47 3.592 1.65-.315 2.8.01 3.137.887.85 2.215 2.34.532 2.34-2.645zm9.513.397c2.798-1.073 1.721-2.417-1.937-2.417-3.343 0-4.372.847-2.862 2.357.838.838 2.71.862 4.8.06zm-14.564-6.85c0-.773-.894-2.477-1.987-3.789-1.725-2.07-1.991-2.143-2.02-.55-.043 2.332 1.758 5.742 3.032 5.742.536 0 .975-.632.975-1.404zm7.685-1.375c.738-.973 1.341-2.677 1.34-3.788 0-1.897-.122-1.875-1.988.364-1.92 2.305-2.665 5.191-1.34 5.191.355 0 1.25-.795 1.988-1.767zm-13.746-8.251c0-2.061-1.307-4.124-2.612-4.124-1.111 0-1.158.5-.235 2.526 1.126 2.471 2.847 3.437 2.847 1.598z"
          display="inline"
          enableBackground="accumulate"
          opacity="1"
          overflow="visible"
        ></path>
        <path
          d="M-449.404 940.195c-4.862-8.113-5.596-9.803-3.768-8.673 1.386.857 5.041-.391 5.041-1.722 0-.66-1.468-.878-3.804-.565l-3.805.51-11.74-19.993-11.74-19.994 8.22-.675c4.522-.371 14.88-.522 23.019-.334 12.84.296 15.078.595 16.92 2.265 2.096 1.9 2.123 1.897 2.123-.252 0-2.076.444-2.177 9.597-2.177 5.278 0 9.596.269 9.596.597 0 .33-2.143 4.175-4.763 8.546-4.57 7.625-4.84 7.879-6.657 6.235-1.826-1.653-1.868-1.58-1.184 2.066.65 3.46.045 4.907-7.154 17.158-12.678 21.572-14.723 24.997-14.924 24.997-.104 0-2.344-3.595-4.977-7.989zm9.777-8.787c2.618-1.004 1.816-2.417-1.373-2.417-3.156 0-4.968 1.503-2.844 2.36 1.827.736 2.427.744 4.217.057zm-25.49-28.18c.633-1.391.814-2.868.4-3.282-.871-.871-3.617 2.536-3.617 4.49 0 2.221 1.995 1.472 3.216-1.208zm41.23-3.964c0-1.537-2.983-5.002-3.694-4.292-.645.646 1.88 5.735 2.846 5.735.466 0 .848-.65.848-1.443zm-35.355-6.75c0-1.62-1.927-.94-2.995 1.055-1.773 3.313-1.112 4.773 1.008 2.228 1.093-1.312 1.987-2.79 1.987-3.283z"
          display="inline"
          enableBackground="accumulate"
          opacity="1"
          overflow="visible"
        ></path>
        <path
          d="M-436.766 949.482c-2.362-.222-4.26-.719-4.22-1.104.269-2.532 9.056-15.064 11.331-16.16 2.695-1.297 3.718-3.227 1.71-3.227-.565 0 .17-2.363 1.634-5.25 3.647-7.197 18.397-31.89 19.43-32.528.462-.285 6.773 9.575 14.025 21.913 16.562 28.174 20.898 36.068 19.812 36.068-.473 0-1.427-.91-2.121-2.02-.694-1.111-2.167-2.02-3.274-2.02-2.687 0-2.554 1.469.246 2.719 1.734.773-.613 1.175-10.1 1.73-6.796.397-12.798.45-13.337.117-1.133-.7-24.556-.926-28.318-.273-1.389.241-4.457.257-6.818.035zm24.176-6.858c.634-1.391.815-2.868.401-3.282-.871-.871-3.617 2.536-3.617 4.49 0 2.221 1.995 1.472 3.216-1.208zm28.099-1.006c-.692-.833-2.167-1.515-3.278-1.515-1.681 0-1.81.254-.763 1.515.692.833 2.167 1.515 3.278 1.515 1.681 0 1.81-.254.763-1.515zm-8.626-5.205c-2.122-1.552-5.516-1.82-5.516-.435 0 1.154 5.229 3.03 6.466 2.319.501-.288.073-1.135-.95-1.884zm-14.656-1.808c.665-.801 2.653-1.598 4.417-1.77l3.208-.313-3.233-1.766c-3.416-1.865-10.405-2.418-10.405-.823 0 .518.929 1.237 2.063 1.597 1.475.468 1.887 1.207 1.447 2.593-.723 2.28.772 2.568 2.503.482zm-10.64-3.197c2.797-1.073 1.72-2.417-1.939-2.417-3.465 0-4.769 1.354-2.272 2.361 1.82.735 2.421.743 4.21.056zm16.218-6.407c1.805-3.49 1.887-4.091.555-4.091-1.475 0-4.337 4.802-3.587 6.016.973 1.574 1.345 1.337 3.032-1.925zm-7.045-1.06c-.862-1.667-2.01-3.031-2.551-3.031-1.409 0-1.218 1.237.588 3.816 2.32 3.312 3.78 2.728 1.963-.786zm-3.535-6.005c0-.525-1.162-2.23-2.583-3.788l-2.582-2.835.686 2.526c.79 2.91 2.312 5.05 3.592 5.05.488 0 .887-.429.887-.953zm15.627-2.02c.916-1.77 1.148-3.214.574-3.568-1.109-.686-4.321 4.953-3.366 5.908.98.98 1.15.836 2.792-2.34z"
          display="inline"
          enableBackground="accumulate"
          opacity="1"
          overflow="visible"
        ></path>
        <path
          d="M-442.375 989.968c-.388-.387-.705-8.811-.705-18.719v-18.014h33.335c18.334 0 33.335.204 33.335.454 0 .49-61.097 35.393-63.692 36.385-.863.33-1.885.282-2.273-.106zm5.334-6.26c.012-.741-.546-1.16-1.24-.93-1.644.541-3.836 4.919-3.078 6.146.687 1.11 4.284-3.235 4.318-5.216zm3.671-5.756c.921-1.406 1.347-2.884.947-3.283-.76-.756-4.596 3.37-4.596 4.942 0 1.764 2.002.854 3.65-1.66zm5.318-9.19c.666-1.461.927-2.939.58-3.283-.687-.685-4.496 3.585-4.496 5.04 0 1.98 2.782.732 3.916-1.757zm5.14-8.39c1.38-2.58 1.32-3.097-.362-3.097-1.323 0-2.633 2.051-2.633 4.124 0 1.643 1.917.986 2.995-1.027z"
          display="inline"
          enableBackground="accumulate"
          opacity="1"
          overflow="visible"
        ></path>
        <path
          d="M-472.952 976.578c-13.85-7.718-28.704-16.055-33.01-18.527l-7.83-4.494 22.893-.666c12.59-.367 27.819-.666 33.84-.666h10.949v19.192c0 10.557-.374 19.193-.831 19.193-.457 0-12.162-6.314-26.011-14.032zm23.226 7.202c-1.099-1.676-1.95-2.234-2.21-1.45-.234.7.378 2.5 1.36 3.999 1.099 1.676 1.95 2.234 2.21 1.45.234-.7-.378-2.5-1.36-3.999zm-5.093-9.112c-1.569-2.356-1.882-2.484-2.204-.903-.207 1.014.448 2.754 1.454 3.866 2.49 2.751 3.058.505.75-2.963zm-3.413-5.62c0-.747-.91-2.18-2.02-3.186-2.22-2.009-2.722-.673-.975 2.591 1.201 2.245 2.995 2.602 2.995.596zm-6.061-10.134c0-1.61-2.808-4.219-3.642-3.384-.773.773 1.462 4.776 2.667 4.776.536 0 .975-.626.975-1.392z"
          display="inline"
          enableBackground="accumulate"
          opacity="1"
          overflow="visible"
        ></path>
        <path
          d="M-381.424 927.392c-9.217-15.846-10.262-18.135-9.684-21.214.615-3.276-.741-4.963-1.759-2.188-.363.99-.744.998-1.764.037-1.925-1.813-9.925-15.841-9.464-16.597.487-.797 29.077-17.028 29.995-17.028.361 0 .396.682.076 1.515-.697 1.817.77 1.997 2.463.303.943-.942 1.212 7.027 1.212 35.86 0 20.39-.167 37.073-.372 37.073-.204 0-5.02-7.992-10.703-17.761zm-3.617-32.82c-.987-1.595-2.107-1.044-3.329 1.637-1.919 4.212-1.279 5.197 1.4 2.152 1.38-1.568 2.247-3.273 1.929-3.788zm3.545-4.91c.575-1.075 1.035-2.78 1.023-3.789-.019-1.543-.336-1.433-1.998.692-2.131 2.724-2.613 5.05-1.045 5.05.536 0 1.445-.879 2.02-1.954zm4.884-8.35c1.382-1.382 1.642-4.849.364-4.849-.734 0-3.192 4.315-3.192 5.603 0 .881 1.627.447 2.828-.754z"
          display="inline"
          enableBackground="accumulate"
          opacity="1"
          overflow="visible"
        ></path>
      </g>
    </svg>