<svg
      xmlns="http://www.w3.org/2000/svg"
      width="40"
      height="40"
      version="1.1"
      viewBox="0 0 153.684 116.059"
    >
      <g
        fill="#00d9ff"
        stroke="none"
        color="#000"
        transform="rotate(-60 107.096 62.648)"
        visibility="visible"
      >
        <path
          d="M70.438 40.15c-9.663-5.385-21.105-11.936-45.725-26.18L1.233.385 17.783.19c21.377-.253 96.831-.253 118.197 0l16.541.195-15.574 9.012C99.155 31.264 77.583 43.44 76.698 43.403c-.251-.01-3.068-1.474-6.26-3.253z"
          display="inline"
          opacity="1"
          overflow="visible"
        ></path>
        <path
          d="M68.939 122.579L43.994 79.367C19.365 36.7 0 2.815 0 2.385c0-.474 54.307 30.571 71.566 40.912l3.708 2.22.197 5.32c.254 6.858.254 51.975 0 69.324l-.197 13.392-6.335-10.974z"
          display="inline"
          opacity="1"
          overflow="visible"
        ></path>
        <path
          d="M78.551 133.391c-.277-.278-.28-65.47-.002-78.397l.212-9.866 17.76-10.269c19.46-11.251 50.77-29.192 54.807-31.406 2.039-1.118 2.506-1.276 2.318-.783-.65 1.707-40.575 71.168-67.339 117.155-8.533 14.66-7.486 13.836-7.756 13.566z"
          display="inline"
          opacity="1"
          overflow="visible"
        ></path>
      </g>
    </svg>